<svg version="1.1" id="Layer_1" xmlns="http://www.w3.org/2000/svg" xmlns:xlink="http://www.w3.org/1999/xlink" x="0px" y="0px"
	 width="100%" viewBox="0 0 419 85" enable-background="new 0 0 419 85" xml:space="preserve">
<path fill="#FFFFFF" opacity="1.000000" stroke="none" 
	d="
M308.000000,86.000000 
	C206.666672,86.000000 105.833336,85.977684 5.000148,86.095520 
	C1.576143,86.099518 0.875194,85.427795 0.899441,81.999329 
	C1.083312,56.000629 1.040714,29.999878 0.934749,4.000312 
	C0.924557,1.499633 1.500813,0.936403 3.999985,0.937678 
	C141.666611,1.007902 279.333252,1.007898 416.999878,0.937704 
	C419.498688,0.936430 420.075409,1.499157 420.065277,4.000167 
	C419.959534,30.166403 419.937775,56.333580 420.085510,82.499413 
	C420.102325,85.484085 419.483887,86.095039 416.499817,86.084259 
	C380.500244,85.954147 344.500031,86.000000 308.000000,86.000000 
z"/>
<path fill="#FF629D" opacity="1.000000" stroke="none" 
	d="
M60.747444,47.226292 
	C58.317478,55.442780 53.691898,61.114986 45.265045,63.742020 
	C49.189945,69.576859 55.222065,71.609688 61.498341,73.862846 
	C53.525665,76.592117 41.408916,72.919113 35.591999,66.096748 
	C34.132259,64.384682 32.593872,63.311829 30.504082,62.489643 
	C20.694836,58.630383 15.417642,46.360844 18.393545,34.800869 
	C21.160057,24.054281 31.483181,16.868851 42.405106,18.087578 
	C52.656208,19.231451 60.782295,28.383677 61.161449,39.349712 
	C61.247238,41.830837 60.964897,44.324696 60.747444,47.226292 
z"/>
<path fill="#FF629D" opacity="1.000000" stroke="none" 
	d="
M234.632721,18.066601 
	C238.614624,17.978231 242.082214,21.974033 245.749039,18.195278 
	C246.302170,17.625254 247.386520,18.322098 247.443497,19.326096 
	C247.699753,23.842497 248.350571,28.371998 247.588898,33.130852 
	C245.014954,32.403400 245.043304,30.201752 244.077347,28.811527 
	C240.741058,24.009859 236.530502,20.681355 230.409271,21.215765 
	C224.451675,21.735889 220.986450,25.634167 218.800644,30.892742 
	C216.551239,36.304375 216.262756,41.973457 217.396805,47.568359 
	C219.487518,57.883026 228.062897,62.706200 238.151917,59.577717 
	C241.037033,58.683083 243.631638,57.218430 245.996445,55.323196 
	C246.666855,54.785915 247.335556,53.436344 248.399963,54.588463 
	C249.384354,55.653961 248.177094,56.429607 247.589661,57.068897 
	C241.736923,63.438187 234.249023,65.009308 226.142044,63.621368 
	C214.290970,61.592438 208.098557,52.424084 208.994720,38.925274 
	C209.776108,27.155272 217.942307,18.694613 229.197525,18.041925 
	C230.856155,17.945744 232.525558,18.035564 234.632721,18.066601 
z"/>
<path fill="#FF629D" opacity="1.000000" stroke="none" 
	d="
M339.781372,61.857372 
	C342.759674,59.372932 342.701904,55.879658 342.574982,52.291237 
	C342.457275,48.963909 342.575073,45.628937 342.534515,42.297997 
	C342.498871,39.370686 341.730103,36.846207 338.172455,36.851345 
	C334.713928,36.856339 331.577209,38.309177 331.220245,41.912369 
	C330.713928,47.023254 331.127777,52.224239 331.126862,57.386723 
	C331.126434,59.810448 333.678741,59.948505 335.709839,61.733383 
	C330.327026,61.733383 325.940765,61.733383 320.359100,61.733383 
	C325.507904,59.669720 325.305664,56.035141 325.242188,52.259804 
	C325.099396,43.767094 325.167816,35.270180 325.213257,26.775311 
	C325.229523,23.735004 325.491425,20.658304 319.837311,20.710590 
	C324.090424,18.174448 327.387634,17.958786 330.881195,16.966276 
	C330.881195,23.325283 330.881195,29.411570 330.881195,35.433533 
	C331.528961,35.569275 331.954987,35.793617 332.112030,35.671646 
	C335.761902,32.836384 339.651855,31.313009 344.101044,33.711876 
	C348.577271,36.125320 348.360046,40.427742 348.292664,44.649418 
	C348.244843,47.646927 348.269775,50.645897 348.287292,53.644066 
	C348.305450,56.747166 347.692505,60.152439 352.873505,60.902824 
	C352.532318,61.261799 352.191162,61.620777 351.849976,61.979755 
	C347.964905,61.979755 344.079865,61.979755 339.781372,61.857372 
z"/>
<path fill="#FF629D" opacity="1.000000" stroke="none" 
	d="
M187.005829,48.021141 
	C187.005890,50.167267 186.988724,51.830315 187.009659,53.492878 
	C187.049896,56.690014 186.109711,60.346756 190.670883,61.745464 
	C186.540665,61.745464 182.410431,61.745464 178.280197,61.745464 
	C181.809998,59.932384 181.091843,56.770386 181.101746,53.891247 
	C181.115479,49.900513 181.062210,45.909153 181.114700,41.919075 
	C181.155823,38.792580 179.835281,36.384312 176.648651,36.543819 
	C173.630905,36.694874 170.576401,38.248882 170.335419,41.787594 
	C169.997314,46.752415 170.306717,51.758686 170.244949,56.746063 
	C170.213272,59.303680 172.441223,59.993725 175.043610,61.715069 
	C169.463837,61.715069 165.120239,61.715069 160.709702,61.715069 
	C166.349579,56.832531 166.191589,38.892586 160.254013,36.349415 
	C162.611588,34.056545 165.771393,34.158970 168.413284,33.077976 
	C169.287537,32.720253 170.125870,33.005962 170.170242,34.101807 
	C170.236832,35.746960 170.610687,35.943974 172.231735,35.236141 
	C183.305710,30.400692 187.000290,32.897263 187.005798,45.043606 
	C187.006180,45.875019 187.005829,46.706429 187.005829,48.021141 
z"/>
<path fill="#FF629D" opacity="1.000000" stroke="none" 
	d="
M72.152451,60.852306 
	C69.401688,58.705555 68.649071,56.116749 68.706459,53.121693 
	C68.779755,49.296780 68.747658,45.469120 68.712532,41.643085 
	C68.683289,38.459412 69.628723,34.797760 65.023170,32.988937 
	C67.240608,32.988937 69.466919,33.112675 71.673035,32.954552 
	C73.932716,32.792591 74.510887,33.795593 74.473045,35.865505 
	C74.378807,41.020988 74.464020,46.179493 74.440193,51.336617 
	C74.423561,54.938362 75.632469,57.910961 79.656998,57.718719 
	C83.467957,57.536686 86.229622,55.570774 85.973099,51.025433 
	C85.813995,48.206249 85.812813,45.363220 85.975372,42.544426 
	C86.200737,38.636608 86.220337,34.957561 81.394913,32.987740 
	C83.776932,32.987740 86.172623,33.147720 88.537392,32.945747 
	C91.266357,32.712677 91.919594,33.878815 91.846565,36.404739 
	C91.687973,41.890110 91.861488,47.384274 91.773170,52.872818 
	C91.726486,55.773628 91.932838,58.312061 96.454514,58.159679 
	C93.623405,60.885899 90.472145,60.840744 87.840263,61.954330 
	C87.054703,62.286713 86.053734,62.264809 86.024666,61.078255 
	C85.960861,58.473885 84.853622,59.531921 83.699799,60.302818 
	C80.112106,62.699821 76.385429,63.334412 72.152451,60.852306 
z"/>
<path fill="#FF629D" opacity="1.000000" stroke="none" 
	d="
M381.106873,56.063061 
	C374.708862,63.326496 366.273621,64.498383 360.853668,59.163536 
	C354.439941,52.850529 354.617493,41.165989 361.232788,35.407475 
	C364.860718,32.249413 369.082672,31.726547 373.380310,33.412788 
	C377.859772,35.170357 380.479279,38.661873 381.356079,43.498848 
	C381.748016,45.661133 380.901642,46.069824 379.027893,46.042717 
	C374.200562,45.972885 369.365326,46.169209 364.545441,45.967934 
	C361.500793,45.840794 361.265167,47.119518 361.960815,49.543430 
	C363.927002,56.394451 371.573669,59.273537 377.519989,55.233974 
	C379.244232,54.062630 380.692902,52.485615 382.363007,51.010586 
	C383.398804,53.110130 381.926178,54.324203 381.106873,56.063061 
z"/>
<path fill="#FF629D" opacity="1.000000" stroke="none" 
	d="
M269.518677,50.287132 
	C268.628235,39.813198 274.873627,32.335918 283.951752,32.484112 
	C292.870392,32.629700 298.950073,39.890064 298.052795,49.323612 
	C297.384583,56.348846 292.212921,61.593178 285.174255,62.383137 
	C277.768127,63.214329 272.122498,58.963139 269.518677,50.287132 
z"/>
<path fill="#FF629D" opacity="1.000000" stroke="none" 
	d="
M114.282555,32.788216 
	C119.459328,33.922066 122.421516,36.952545 124.121628,41.484680 
	C125.325584,44.694176 125.103401,46.394154 120.951027,46.088547 
	C116.649971,45.772007 112.295235,46.218792 107.987007,45.955231 
	C104.530396,45.743774 104.469315,47.384438 105.264236,49.843975 
	C107.467949,56.662407 115.161766,59.266266 121.023132,55.101246 
	C122.610008,53.973625 123.947945,52.495682 125.491371,51.095791 
	C125.491348,57.448612 119.342316,62.557606 112.019875,62.481392 
	C104.880608,62.407085 98.965820,55.171696 99.375771,46.764572 
	C99.830666,37.435570 106.784081,31.182695 114.282555,32.788216 
z"/>
<path fill="#FF629D" opacity="1.000000" stroke="none" 
	d="
M155.220032,41.113239 
	C156.719482,44.726898 156.195511,46.352058 152.146210,46.084084 
	C147.680817,45.788578 143.175461,46.148769 138.697693,45.969475 
	C135.913742,45.858002 135.695450,47.046162 136.310013,49.261620 
	C138.340927,56.582829 146.514893,59.473915 152.566223,54.902184 
	C153.988220,53.827877 155.186203,52.457062 156.580505,51.134167 
	C156.840210,56.641205 152.272705,61.231842 145.765366,62.213715 
	C138.916718,63.247093 133.336594,59.395657 131.305710,52.233532 
	C129.167023,44.691212 132.564865,36.142986 138.775375,33.441494 
	C145.005554,30.731455 151.134659,33.468719 155.220032,41.113239 
z"/>
<path fill="#FF629D" opacity="1.000000" stroke="none" 
	d="
M402.360352,61.525612 
	C397.890350,63.854572 393.712311,60.835892 389.528259,61.795086 
	C388.460297,62.039925 388.416351,60.767803 388.387207,59.987129 
	C388.283661,57.213837 387.670410,54.432434 388.327637,51.580353 
	C390.687744,51.634502 390.072754,53.762829 390.720062,54.856926 
	C392.214050,57.382057 393.795929,59.655369 396.954834,60.052811 
	C399.277283,60.345009 401.280762,59.741741 402.381042,57.445446 
	C403.468048,55.176804 402.108521,53.651554 400.659393,52.203556 
	C398.951660,50.497128 396.579926,50.025131 394.522186,48.967129 
	C389.456635,46.362648 387.042236,42.194347 388.294739,38.284615 
	C389.685913,33.942097 393.982666,31.932373 399.787354,32.909229 
	C406.460846,34.032291 406.460846,34.032288 405.706726,42.146702 
	C403.213593,41.460068 403.188110,38.829475 401.791412,37.423840 
	C400.025116,35.646282 398.168427,34.431980 395.607635,35.155899 
	C394.276703,35.532146 393.155945,36.391243 393.093658,37.916393 
	C392.992554,40.393211 394.644073,41.907799 396.488190,43.082550 
	C398.156464,44.145271 400.029022,44.885933 401.805664,45.780186 
	C409.818512,49.813324 410.180145,56.193081 402.360352,61.525612 
z"/>
<path fill="#FF629D" opacity="1.000000" stroke="none" 
	d="
M258.619324,17.545540 
	C262.613831,16.673050 261.268677,19.502382 261.282745,20.863773 
	C261.394440,31.666382 261.364014,42.470707 261.334290,53.274387 
	C261.324615,56.783878 260.922974,60.434219 265.674469,61.687050 
	C260.895081,61.687050 256.115723,61.687050 251.336334,61.687050 
	C255.621689,60.085213 255.684921,56.665386 255.618988,52.914841 
	C255.467041,44.274502 255.568420,35.629669 255.571777,26.986658 
	C255.573013,23.777609 255.870850,20.380928 249.550995,20.914850 
	C253.139877,18.459169 255.754059,18.287083 258.619324,17.545540 
z"/>
<path fill="#FF629D" opacity="1.000000" stroke="none" 
	d="
M306.047516,56.356525 
	C306.020172,50.921879 306.108307,45.920387 305.966980,40.925385 
	C305.907318,38.817280 307.383698,35.718880 302.918976,35.804565 
	C301.320404,35.835247 301.747833,33.841072 302.700836,33.226749 
	C306.403839,30.839703 308.312256,26.929047 310.884766,23.476597 
	C312.563812,24.927546 311.928864,26.542089 311.864594,27.891451 
	C311.707153,31.196415 311.836456,33.940922 316.399750,33.021667 
	C317.114990,32.877586 318.208038,32.822521 318.266296,34.039124 
	C318.328003,35.327866 317.439819,35.872498 316.330109,35.661560 
	C311.627594,34.767712 311.752655,37.696327 311.886475,40.936012 
	C312.037628,44.595627 311.913208,48.266315 311.923065,51.932148 
	C311.940857,58.552174 312.737946,59.269409 319.129456,58.118725 
	C317.660919,61.826466 314.594452,62.464672 311.461823,62.389217 
	C308.077545,62.307705 306.682831,59.807274 306.047516,56.356525 
z"/>
<path fill="#F4F4F5" opacity="1.000000" stroke="none" 
	d="
M31.651028,57.374184 
	C24.810806,48.295574 24.123857,35.647221 29.763536,27.163385 
	C35.406300,18.674910 44.837555,18.672218 49.849724,27.507395 
	C54.897125,36.404686 54.863682,45.729485 49.840382,54.655827 
	C45.601757,62.187809 38.717377,63.149399 31.651028,57.374184 
z"/>
<path fill="#FFFFFF" opacity="1.000000" stroke="none" 
	d="
M369.649933,35.040466 
	C371.036926,35.944324 372.210968,36.639488 373.010925,37.635185 
	C374.232788,39.156120 375.861298,41.016087 374.981995,42.911060 
	C374.091797,44.829571 371.708496,43.432472 370.027863,43.792854 
	C369.712341,43.860508 369.347778,43.878815 369.043457,43.790413 
	C366.751129,43.124592 363.455170,45.543957 362.182983,42.319649 
	C361.184906,39.790165 365.538422,35.651039 369.649933,35.040466 
z"/>
<path fill="#FFFFFF" opacity="1.000000" stroke="none" 
	d="
M292.202850,50.654102 
	C292.015472,53.122818 291.235474,54.923542 290.131348,56.609089 
	C287.316589,60.906017 282.974182,61.350830 279.311951,57.712780 
	C274.819550,53.250031 273.740265,44.216194 277.046570,38.750843 
	C279.760864,34.264103 283.950806,33.591503 287.832916,37.100399 
	C291.738403,40.630444 292.653748,45.217846 292.202850,50.654102 
z"/>
<path fill="#FFFFFF" opacity="1.000000" stroke="none" 
	d="
M109.305878,43.817230 
	C107.680138,43.509689 105.658470,44.586723 105.398598,43.064655 
	C104.963226,40.514751 106.663757,38.396866 108.286606,36.528008 
	C109.728928,34.867054 111.652534,34.411064 113.673744,35.323883 
	C114.537018,35.713757 115.282860,36.474815 115.934296,37.199959 
	C117.389786,38.820148 119.102417,40.955715 118.468163,42.833660 
	C117.759239,44.932663 115.028229,43.506557 113.208511,43.785194 
	C112.079124,43.958130 110.901695,43.817287 109.305878,43.817230 
z"/>
<path fill="#FFFFFF" opacity="1.000000" stroke="none" 
	d="
M139.638397,36.456066 
	C144.416504,34.131706 149.393921,37.046406 149.835312,41.956093 
	C149.945404,43.180927 149.606598,43.813999 148.296066,43.796928 
	C146.478546,43.773251 144.654312,43.898773 142.843979,43.784897 
	C140.755844,43.653538 137.610550,44.818165 136.822449,43.235600 
	C135.748627,41.079304 137.816055,38.674988 139.638397,36.456066 
z"/>
</svg>