<svg version="1.1" id="Layer_1" xmlns="http://www.w3.org/2000/svg" xmlns:xlink="http://www.w3.org/1999/xlink" x="0px" y="0px"
	 width="100%" viewBox="0 0 445 416" enable-background="new 0 0 445 416" xml:space="preserve">
<path fill="#FFFFFF" opacity="1.000000" stroke="none" 
	d="
M305.000000,417.000000 
	C203.333344,417.000000 102.166687,417.000000 1.000027,417.000000 
	C1.000018,278.333374 1.000018,139.666718 1.000009,1.000064 
	C149.333282,1.000043 297.666565,1.000043 445.999878,1.000021 
	C445.999939,139.666611 445.999939,278.333221 445.999969,416.999908 
	C399.166656,417.000000 352.333344,417.000000 305.000000,417.000000 
M307.000397,281.591492 
	C309.818756,260.489685 305.703125,239.907181 301.905701,219.766815 
	C327.297363,204.479126 353.630829,191.838303 376.239746,172.285233 
	C377.000000,177.539932 377.253906,182.577332 376.937592,187.578674 
	C376.513916,194.277740 376.279968,201.086487 374.858521,207.607010 
	C369.960815,230.074142 360.824890,250.727829 344.208221,266.945068 
	C335.036011,275.896759 324.201660,283.174286 313.924774,290.953125 
	C308.678375,294.924286 306.883301,301.458557 310.002106,307.141602 
	C312.441742,311.587158 321.401581,316.151611 326.494507,312.665863 
	C336.959534,305.503296 347.653320,298.464691 357.104401,290.080383 
	C371.160522,277.610779 381.252319,262.010559 389.104889,244.868790 
	C397.529083,226.479248 401.199860,207.056946 401.825012,187.132904 
	C402.312683,171.591553 399.714783,156.276230 395.147888,141.279648 
	C393.292480,135.186996 389.280273,132.096329 383.865356,131.235672 
	C379.072693,130.473907 374.956635,132.751678 371.860931,137.144379 
	C368.189941,142.353424 364.292389,147.676331 359.475372,151.745026 
	C350.533600,159.297714 341.188538,166.489136 331.395050,172.887589 
	C319.385651,180.733856 306.743988,187.612411 294.128845,195.054962 
	C292.401428,191.354797 290.719269,188.045090 289.284668,184.631348 
	C279.342926,160.974075 265.892334,139.372482 250.414261,119.028549 
	C242.987411,109.266922 234.797424,100.089066 227.072357,90.550209 
	C220.290848,82.176430 211.061646,82.504066 205.290085,89.265450 
	C198.807602,96.859657 192.474579,104.583771 186.176086,112.332291 
	C167.314713,135.535965 151.623917,160.678421 139.955948,188.265656 
	C139.112534,190.259720 138.228256,192.236496 137.192307,194.612808 
	C128.303268,189.613235 119.945450,185.002045 111.673920,180.240921 
	C95.948135,171.189102 80.496727,161.717102 67.926865,148.359192 
	C63.656662,143.821274 59.961411,138.738525 55.648136,134.245850 
	C50.382626,128.761353 39.654778,131.217880 37.038658,138.414078 
	C32.050156,152.136032 29.122349,166.387466 29.189077,180.929794 
	C29.240049,192.037842 29.878767,203.391006 32.302704,214.175110 
	C35.083576,226.547211 38.939438,238.985596 44.457047,250.362808 
	C52.837639,267.643463 64.371254,283.069641 79.702667,295.038849 
	C87.612617,301.214111 96.016357,306.850250 104.639877,311.986389 
	C110.715179,315.604858 118.442162,312.987640 120.952126,306.706421 
	C123.623764,300.020660 122.535225,293.863342 115.589325,289.869934 
	C101.522430,281.782501 89.173309,271.548950 79.216583,258.660919 
	C70.415863,247.269302 63.522171,234.792404 60.011284,220.751053 
	C57.655281,211.328506 55.353054,201.808167 54.230877,192.191055 
	C53.478943,185.746964 52.914261,178.898041 55.326805,172.274445 
	C61.584675,177.049286 67.226524,182.083771 73.545403,186.035721 
	C91.003960,196.954559 108.730232,207.446381 126.395386,218.032379 
	C128.431564,219.252594 129.182098,220.182037 128.673187,222.950974 
	C126.495728,234.798340 123.998207,246.686340 123.204262,258.664703 
	C122.073158,275.730042 123.373093,292.756653 130.048904,308.873871 
	C133.788498,317.902252 139.357452,325.766663 148.504974,329.652374 
	C164.194809,336.317139 181.415405,329.457764 188.964584,314.016693 
	C197.782883,295.979706 198.891220,277.140594 194.370590,257.755096 
	C189.437912,236.602524 175.628540,221.974579 158.959946,209.181931 
	C171.256851,174.218674 192.053696,144.382675 215.633575,115.535416 
	C221.217758,122.698204 226.565369,129.501999 231.853912,136.351364 
	C248.530472,157.949677 261.763214,181.488525 271.396606,207.020401 
	C271.709869,207.850616 270.960327,209.481659 270.207336,210.251404 
	C263.879730,216.720154 257.137390,222.806335 251.089539,229.520782 
	C239.204636,242.715683 234.354507,258.884888 234.242661,276.184723 
	C234.183380,285.355194 236.123062,294.647858 238.046478,303.697021 
	C241.174850,318.415131 249.531021,328.700348 265.057861,331.524506 
	C275.158081,333.361633 284.555573,330.970917 291.662384,323.619781 
	C302.607697,312.298187 305.949890,297.742188 307.000397,281.591492 
M147.796112,351.937653 
	C147.649673,351.858307 147.512009,351.742188 147.355530,351.704895 
	C133.818588,348.476318 120.306374,345.137665 106.730782,342.080383 
	C100.011383,340.567169 92.681755,344.871124 91.107925,350.773407 
	C89.178818,358.008148 92.342682,363.796539 100.476639,366.005157 
	C112.800644,369.351501 125.167854,372.914673 137.753281,374.836212 
	C157.785172,377.894684 177.964828,380.352386 198.172821,381.760590 
	C211.512329,382.690155 225.034332,381.717102 238.432083,380.899048 
	C252.663589,380.030151 266.869202,378.553345 281.041748,376.950104 
	C297.997955,375.031982 314.725464,371.918182 330.859741,366.083221 
	C338.520996,363.312531 341.998230,357.514374 339.814636,350.474854 
	C337.756134,343.838654 330.402283,340.538757 323.064178,342.348785 
	C310.502319,345.447235 297.970459,349.067291 285.199829,350.827576 
	C265.088989,353.599640 244.801620,355.135681 224.564880,356.921722 
	C218.776917,357.432556 212.902328,357.126190 207.073441,356.970184 
	C198.476395,356.740143 189.854614,356.645294 181.298294,355.879364 
	C170.398895,354.903687 159.554306,353.315979 147.796112,351.937653 
M378.837036,72.002350 
	C369.782654,74.934402 363.346893,83.652489 363.888184,94.079773 
	C364.801453,111.672760 380.505280,117.214043 393.753479,112.908325 
	C403.670258,109.685333 406.651947,101.630920 407.261230,91.406769 
	C407.971954,79.479591 391.997040,66.873726 378.837036,72.002350 
M24.000031,94.358353 
	C24.200989,106.664589 32.593876,113.709427 46.448639,114.078850 
	C61.412113,114.477844 69.941116,100.725311 66.473541,87.084084 
	C63.706131,76.197258 53.446804,69.578087 42.755749,71.019676 
	C30.985037,72.606842 22.909792,82.896057 24.000031,94.358353 
M194.908722,46.506424 
	C195.343094,52.896854 199.354691,56.939583 204.339752,60.011921 
	C216.594177,67.564438 234.994781,61.701084 236.981567,42.891830 
	C238.021774,33.043938 229.309921,21.173727 220.240295,20.020538 
	C203.361237,17.874397 192.239716,30.204432 194.908722,46.506424 
z"/>
<path fill="#FF629D" opacity="1.000000" stroke="none" 
	d="
M307.000366,282.055237 
	C305.949890,297.742188 302.607697,312.298187 291.662384,323.619781 
	C284.555573,330.970917 275.158081,333.361633 265.057861,331.524506 
	C249.531021,328.700348 241.174850,318.415131 238.046478,303.697021 
	C236.123062,294.647858 234.183380,285.355194 234.242661,276.184723 
	C234.354507,258.884888 239.204636,242.715683 251.089539,229.520782 
	C257.137390,222.806335 263.879730,216.720154 270.207336,210.251404 
	C270.960327,209.481659 271.709869,207.850616 271.396606,207.020401 
	C261.763214,181.488525 248.530472,157.949677 231.853912,136.351364 
	C226.565369,129.501999 221.217758,122.698204 215.633575,115.535416 
	C192.053696,144.382675 171.256851,174.218674 158.959946,209.181931 
	C175.628540,221.974579 189.437912,236.602524 194.370590,257.755096 
	C198.891220,277.140594 197.782883,295.979706 188.964584,314.016693 
	C181.415405,329.457764 164.194809,336.317139 148.504974,329.652374 
	C139.357452,325.766663 133.788498,317.902252 130.048904,308.873871 
	C123.373093,292.756653 122.073158,275.730042 123.204262,258.664703 
	C123.998207,246.686340 126.495728,234.798340 128.673187,222.950974 
	C129.182098,220.182037 128.431564,219.252594 126.395386,218.032379 
	C108.730232,207.446381 91.003960,196.954559 73.545403,186.035721 
	C67.226524,182.083771 61.584675,177.049286 55.326805,172.274445 
	C52.914261,178.898041 53.478943,185.746964 54.230877,192.191055 
	C55.353054,201.808167 57.655281,211.328506 60.011284,220.751053 
	C63.522171,234.792404 70.415863,247.269302 79.216583,258.660919 
	C89.173309,271.548950 101.522430,281.782501 115.589325,289.869934 
	C122.535225,293.863342 123.623764,300.020660 120.952126,306.706421 
	C118.442162,312.987640 110.715179,315.604858 104.639877,311.986389 
	C96.016357,306.850250 87.612617,301.214111 79.702667,295.038849 
	C64.371254,283.069641 52.837639,267.643463 44.457047,250.362808 
	C38.939438,238.985596 35.083576,226.547211 32.302704,214.175110 
	C29.878767,203.391006 29.240049,192.037842 29.189077,180.929794 
	C29.122349,166.387466 32.050156,152.136032 37.038658,138.414078 
	C39.654778,131.217880 50.382626,128.761353 55.648136,134.245850 
	C59.961411,138.738525 63.656662,143.821274 67.926865,148.359192 
	C80.496727,161.717102 95.948135,171.189102 111.673920,180.240921 
	C119.945450,185.002045 128.303268,189.613235 137.192307,194.612808 
	C138.228256,192.236496 139.112534,190.259720 139.955948,188.265656 
	C151.623917,160.678421 167.314713,135.535965 186.176086,112.332291 
	C192.474579,104.583771 198.807602,96.859657 205.290085,89.265450 
	C211.061646,82.504066 220.290848,82.176430 227.072357,90.550209 
	C234.797424,100.089066 242.987411,109.266922 250.414261,119.028549 
	C265.892334,139.372482 279.342926,160.974075 289.284668,184.631348 
	C290.719269,188.045090 292.401428,191.354797 294.128845,195.054962 
	C306.743988,187.612411 319.385651,180.733856 331.395050,172.887589 
	C341.188538,166.489136 350.533600,159.297714 359.475372,151.745026 
	C364.292389,147.676331 368.189941,142.353424 371.860931,137.144379 
	C374.956635,132.751678 379.072693,130.473907 383.865356,131.235672 
	C389.280273,132.096329 393.292480,135.186996 395.147888,141.279648 
	C399.714783,156.276230 402.312683,171.591553 401.825012,187.132904 
	C401.199860,207.056946 397.529083,226.479248 389.104889,244.868790 
	C381.252319,262.010559 371.160522,277.610779 357.104401,290.080383 
	C347.653320,298.464691 336.959534,305.503296 326.494507,312.665863 
	C321.401581,316.151611 312.441742,311.587158 310.002106,307.141602 
	C306.883301,301.458557 308.678375,294.924286 313.924774,290.953125 
	C324.201660,283.174286 335.036011,275.896759 344.208221,266.945068 
	C360.824890,250.727829 369.960815,230.074142 374.858521,207.607010 
	C376.279968,201.086487 376.513916,194.277740 376.937592,187.578674 
	C377.253906,182.577332 377.000000,177.539932 376.239746,172.285233 
	C353.630829,191.838303 327.297363,204.479126 301.905701,219.766815 
	C305.703125,239.907181 309.818756,260.489685 307.000366,282.055237 
M259.000275,279.470093 
	C258.789734,287.726044 260.089508,295.707428 264.053406,303.015289 
	C267.458405,309.292694 271.948425,309.438629 275.837036,303.658142 
	C281.948120,294.574036 282.522034,283.940338 282.743774,273.715973 
	C283.012909,261.307648 281.379883,248.858093 280.527649,235.779312 
	C270.161987,242.533737 257.421661,260.344116 259.000275,279.470093 
M166.069427,253.466309 
	C162.169678,246.930435 157.908295,240.698975 151.145065,235.996246 
	C149.601334,249.189362 148.044281,262.240692 148.280991,275.259399 
	C148.425293,283.195587 150.788193,291.256073 153.244080,298.911255 
	C154.354462,302.372406 158.077515,307.404633 160.685486,307.447449 
	C165.339890,307.523895 167.568390,302.101807 168.894516,297.808258 
	C173.470047,282.994080 173.624786,268.301300 166.069427,253.466309 
z"/>
<path fill="#FF629D" opacity="1.000000" stroke="none" 
	d="
M148.241089,351.964874 
	C159.554306,353.315979 170.398895,354.903687 181.298294,355.879364 
	C189.854614,356.645294 198.476395,356.740143 207.073441,356.970184 
	C212.902328,357.126190 218.776917,357.432556 224.564880,356.921722 
	C244.801620,355.135681 265.088989,353.599640 285.199829,350.827576 
	C297.970459,349.067291 310.502319,345.447235 323.064178,342.348785 
	C330.402283,340.538757 337.756134,343.838654 339.814636,350.474854 
	C341.998230,357.514374 338.520996,363.312531 330.859741,366.083221 
	C314.725464,371.918182 297.997955,375.031982 281.041748,376.950104 
	C266.869202,378.553345 252.663589,380.030151 238.432083,380.899048 
	C225.034332,381.717102 211.512329,382.690155 198.172821,381.760590 
	C177.964828,380.352386 157.785172,377.894684 137.753281,374.836212 
	C125.167854,372.914673 112.800644,369.351501 100.476639,366.005157 
	C92.342682,363.796539 89.178818,358.008148 91.107925,350.773407 
	C92.681755,344.871124 100.011383,340.567169 106.730782,342.080383 
	C120.306374,345.137665 133.818588,348.476318 147.355530,351.704895 
	C147.512009,351.742188 147.649673,351.858307 148.241089,351.964874 
z"/>
<path fill="#FF629D" opacity="1.000000" stroke="none" 
	d="
M379.258972,71.994827 
	C391.997040,66.873726 407.971954,79.479591 407.261230,91.406769 
	C406.651947,101.630920 403.670258,109.685333 393.753479,112.908325 
	C380.505280,117.214043 364.801453,111.672760 363.888184,94.079773 
	C363.346893,83.652489 369.782654,74.934402 379.258972,71.994827 
z"/>
<path fill="#FF629D" opacity="1.000000" stroke="none" 
	d="
M24.000027,93.904778 
	C22.909792,82.896057 30.985037,72.606842 42.755749,71.019676 
	C53.446804,69.578087 63.706131,76.197258 66.473541,87.084084 
	C69.941116,100.725311 61.412113,114.477844 46.448639,114.078850 
	C32.593876,113.709427 24.200989,106.664589 24.000027,93.904778 
z"/>
<path fill="#FF629D" opacity="1.000000" stroke="none" 
	d="
M194.630310,46.179886 
	C192.239716,30.204432 203.361237,17.874397 220.240295,20.020538 
	C229.309921,21.173727 238.021774,33.043938 236.981567,42.891830 
	C234.994781,61.701084 216.594177,67.564438 204.339752,60.011921 
	C199.354691,56.939583 195.343094,52.896854 194.630310,46.179886 
z"/>
<path fill="#FFFFFF" opacity="1.000000" stroke="none" 
	d="
M259.000275,278.986023 
	C257.421661,260.344116 270.161987,242.533737 280.527649,235.779312 
	C281.379883,248.858093 283.012909,261.307648 282.743774,273.715973 
	C282.522034,283.940338 281.948120,294.574036 275.837036,303.658142 
	C271.948425,309.438629 267.458405,309.292694 264.053406,303.015289 
	C260.089508,295.707428 258.789734,287.726044 259.000275,278.986023 
z"/>
<path fill="#FFFFFF" opacity="1.000000" stroke="none" 
	d="
M166.314041,253.760010 
	C173.624786,268.301300 173.470047,282.994080 168.894516,297.808258 
	C167.568390,302.101807 165.339890,307.523895 160.685486,307.447449 
	C158.077515,307.404633 154.354462,302.372406 153.244080,298.911255 
	C150.788193,291.256073 148.425293,283.195587 148.280991,275.259399 
	C148.044281,262.240692 149.601334,249.189362 151.145065,235.996246 
	C157.908295,240.698975 162.169678,246.930435 166.314041,253.760010 
z"/>
</svg>